<?xml version="1.0" encoding="UTF-8"?>
<svg id="Layer_1" data-name="Layer 1" xmlns="http://www.w3.org/2000/svg" viewBox="0 0 155.93 228.48">
  <defs>
    <style>
      .cls-1 {
        font-family: MontserratRoman-Bold, Montserrat;
        font-size: 45.46px;
        font-variation-settings: 'wght' 700;
        font-weight: 700;
      }

      .cls-1, .cls-2, .cls-3 {
        fill: #fbd655;
      }

      .cls-4 {
        fill: #00134d;
      }

      .cls-3 {
        fill-rule: evenodd;
      }
    </style>
  </defs>
  <path class="cls-3" d="M119.66,74.39c-9.79-7.94-19.59-15.89-29.38-23.83,.85-1.12,1.71-2.25,2.56-3.37,1.41-1.79,2.83-3.58,4.24-5.37,7.34-9.5,10.87-7.21,18.3-11.18,3.3-1.76,4.61-6.44,7.91-9.12,5.18-4.16,11.25-8.2,15.93-13.69-.09-.52-.19-1.03-.28-1.55,1.6-1.93,3.06-2.79,4.8-3.85,.16-.09,.22-1.46,.68-2.06,.28-.12,.55-.24,.83-.36,4.1,.64,7.98,4.42,10.7,7.91-.09,.82,.02,1.31-.52,2.19-.73,.03-1.03,.25-1.75,1.15-.17,1.51-1.03,3.26-2.15,4.76-.57,.05-1.13,.1-1.7,.15-3.44,6.83-6.93,13.7-10.33,20.48-1.33,2.5-4.42,4.4-5.53,6.92-1.97,4.47-.62,9.13-1.94,13.6-1.59,5.38-7.69,11.72-12.33,17.23Z"/>
  <rect class="cls-2" x=".8" y="146.09" width="124.21" height="30.28"/>
  <g>
    <polygon class="cls-2" points="6.13 143.44 68.77 74.35 120 74.35 61.96 143.44 6.13 143.44"/>
    <path class="cls-4" d="M118.92,74.85l-57.19,68.09H7.26l61.73-68.09h49.93m2.15-1h-52.52l-.3,.33L6.52,142.27l-1.52,1.67H62.19l.3-.36,57.19-68.09,1.38-1.64h0Z"/>
  </g>
  <text class="cls-1" transform="translate(.48 216.7)"><tspan x="0" y="0">ZIMA</tspan></text>
  <g>
    <rect class="cls-2" x=".5" y="43.41" width="125.21" height="31.28"/>
    <path class="cls-4" d="M125.21,43.91v30.28H1v-30.28H125.21m1-1H0v32.28H126.21V42.91h0Z"/>
  </g>
</svg>