<?xml version="1.0" encoding="UTF-8"?>
<svg id="Layer_1" data-name="Layer 1" xmlns="http://www.w3.org/2000/svg" viewBox="0 0 341.05 500">
  <defs>
    <style>
      .cls-1 {
        fill: #ffca4a;
      }

      .cls-2 {
        font-family: MontserratRoman-Bold, Montserrat;
        font-size: 99.48px;
        font-variation-settings: 'wght' 700;
        font-weight: 700;
      }

      .cls-3 {
        fill-rule: evenodd;
      }
    </style>
  </defs>
  <path class="cls-3" d="M261.68,162.79c-21.43-17.38-42.87-34.77-64.3-52.15,1.87-2.46,3.73-4.91,5.6-7.37,3.09-3.92,6.18-7.84,9.28-11.76,16.07-20.78,23.78-15.79,40.04-24.48,7.22-3.86,10.08-14.1,17.3-19.97,11.34-9.09,24.63-17.95,34.86-29.96-.2-1.13-.41-2.26-.61-3.38,3.51-4.23,6.69-6.11,10.51-8.43,.36-.21,.48-3.2,1.48-4.51,.6-.26,1.2-.52,1.81-.78,8.98,1.41,17.47,9.66,23.41,17.31-.19,1.79,.05,2.87-1.14,4.79-1.6,.06-2.26,.55-3.84,2.53-.37,3.31-2.25,7.14-4.71,10.42-1.24,.11-2.48,.22-3.72,.33-7.54,14.94-15.16,29.98-22.61,44.82-2.92,5.47-9.68,9.62-12.11,15.13-4.3,9.78-1.36,19.97-4.25,29.76-3.48,11.77-16.83,25.64-26.99,37.7Z"/>
  <rect x="1.57" y="319.71" width="271.82" height="66.26"/>
  <g>
    <polygon points="14.57 313.31 150.57 163.31 261.14 163.31 135.13 313.31 14.57 313.31"/>
    <path class="cls-1" d="M260.06,163.81l-125.16,149.01H15.69L150.79,163.81h109.27m2.15-1h-111.86l-.3,.33L14.95,312.14l-1.52,1.67h121.93l.3-.36,125.16-149.01,1.38-1.64h0Z"/>
  </g>
  <text class="cls-2" transform="translate(.86 474.23)"><tspan x="0" y="0">ZIMA</tspan></text>
  <g>
    <rect x="1" y="95.08" width="273.81" height="68.26"/>
    <path class="cls-1" d="M273.82,96.08v66.26H2V96.08H273.82m2-2H0v70.26H275.82V94.08h0Z"/>
  </g>
</svg>