<?xml version="1.0" encoding="UTF-8"?>
<svg id="Layer_1" data-name="Layer 1" xmlns="http://www.w3.org/2000/svg" viewBox="0 0 72.5 80.26">
  <defs>
    <style>
      .cls-1, .cls-2 {
        fill: #efb64b;
      }

      .cls-3 {
        fill: #080357;
      }

      .cls-2 {
        fill-rule: evenodd;
      }
    </style>
  </defs>
  <path class="cls-2" d="m56,33.85c-4.46-3.61-8.91-7.23-13.37-10.84.39-.51.78-1.02,1.16-1.53.64-.81,1.29-1.63,1.93-2.45,3.34-4.32,4.95-3.28,8.33-5.09,1.5-.8,2.1-2.93,3.6-4.15,2.36-1.89,5.12-3.73,7.25-6.23-.04-.23-.08-.47-.13-.7.73-.88,1.39-1.27,2.19-1.75.07-.04.1-.67.31-.94.13-.05.25-.11.38-.16,1.87.29,3.63,2.01,4.87,3.6-.04.37.01.6-.24,1-.33.01-.47.11-.8.53-.08.69-.47,1.48-.98,2.17-.26.02-.52.05-.77.07-1.57,3.11-3.15,6.23-4.7,9.32-.61,1.14-2.01,2-2.52,3.15-.89,2.03-.28,4.15-.88,6.19-.72,2.45-3.5,5.33-5.61,7.84Z"/>
  <rect class="cls-1" x="1.91" y="66.48" width="56.52" height="13.78"/>
  <g>
    <polygon class="cls-1" points="3.72 65.55 32.72 33.56 56.73 33.56 29.87 65.55 3.72 65.55"/>
    <path class="cls-3" d="m55.66,34.06l-26.03,30.98H4.85l28.09-30.98h22.72m2.15-1h-25.31l-.3.33-28.09,30.98-1.52,1.67h27.51l.3-.36,26.03-30.98,1.38-1.64h0Z"/>
  </g>
  <g>
    <rect class="cls-1" x="1" y="18.98" width="58.52" height="15.78"/>
    <path class="cls-3" d="m58.52,19.98v13.78H2v-13.78h56.52m2-2H0v17.78h60.52v-17.78h0Z"/>
  </g>
</svg>